<svg xmlns="http://www.w3.org/2000/svg" viewBox="0 0 48 48" fill="none">
  <rect width="48" height="48" rx="8" fill="#1B3A5C"/>
  <g transform="translate(6 6) scale(0.75)">
    <path d="M 20.5 8.9 L 20.63 3.78 L 27.37 3.78 L 27.5 8.9 L 32.2 10.85 L 35.92 7.32 L 40.68 12.08 L 37.15 15.8 L 39.1 20.5 L 44.22 20.63 L 44.22 27.37 L 39.1 27.5 L 37.15 32.2 L 40.68 35.92 L 35.92 40.68 L 32.2 37.15 L 27.5 39.1 L 27.37 44.22 L 20.63 44.22 L 20.5 39.1 L 15.8 37.15 L 12.08 40.68 L 7.32 35.92 L 10.85 32.2 L 8.9 27.5 L 3.78 27.37 L 3.78 20.63 L 8.9 20.5 L 10.85 15.8 L 7.32 12.08 L 12.08 7.32 L 15.8 10.85 Z" stroke="#9FBBD6" stroke-width="3" stroke-linejoin="round"/>
    <path d="M17 24.5 L22 29.5 L31.5 18.5" stroke="#FFFFFF" stroke-width="4" stroke-linecap="round" stroke-linejoin="round"/>
  </g>
</svg>
